<?xml version="1.0" encoding="utf-8"?>
<!-- Generator: Adobe Illustrator 22.1.0, SVG Export Plug-In . SVG Version: 6.00 Build 0)  -->
<svg version="1.1" id="Layer_1" xmlns="http://www.w3.org/2000/svg" xmlns:xlink="http://www.w3.org/1999/xlink" x="0px" y="0px"
	 viewBox="0 0 24 24" style="enable-background:new 0 0 24 24;" xml:space="preserve">
<g>
	<title>maps</title>
	<path d="M8.478,22.885c-0.203-0.005-0.396-0.069-0.56-0.186l-6.5-4.642C1.156,17.87,1,17.565,1,17.242V2.472
		c0-0.266,0.104-0.518,0.293-0.707c0.189-0.189,0.44-0.293,0.707-0.294c0.211,0,0.412,0.065,0.583,0.187L8.5,5.885l6.418-4.584
		c0.164-0.117,0.356-0.181,0.557-0.186c0.008-0.001,0.017-0.001,0.024-0.001c0.008,0,0.017,0,0.025,0.001
		c0.202,0.005,0.394,0.069,0.557,0.186l6.5,4.642C22.844,6.131,23,6.435,23,6.758v14.771c0,0.267-0.104,0.518-0.292,0.707
		c-0.189,0.189-0.44,0.293-0.707,0.293c-0.211,0-0.412-0.064-0.583-0.187L15.5,18.114l-6.418,4.584
		c-0.164,0.118-0.358,0.182-0.56,0.186c-0.007,0.001-0.014,0.001-0.021,0.001C8.493,22.886,8.485,22.886,8.478,22.885z M2,17.243
		l6,4.285V6.757L2,2.472L2,2.222l0,0.25c0,0,0,0,0.001,0L2,17.243z M9,21.528l6-4.286V2.472L9,6.757V21.528z M22,21.528l0-14.771
		l-6-4.285v14.771L22,21.528z"/>
</g>
</svg>
